# xmcd
#
# Track frame offsets:
#	150
#	22006
#	37328
#	60865
#	76475
#	104142
#	137908
#	175199
#	184910
#	208371
#	226501
#	264505
#
# Disc length: 3849 seconds
#
# Revision: 1
# Processed by: cddbd v1.5.2PL0 Copyright (c) Steve Scherf et al.
# Submitted via: audiograbber 1.83.01
#
DISCID=ac0f070c
DTITLE=Grateful Dead - 73-02-19 Assembly Hall, University of Illinois, Champaig
DTITLE=n-Urbana IL
DYEAR=1900
DGENRE=
TTITLE0=Wave That Flag
TTITLE1=Me and My Uncle
TTITLE2=Brown Eyed Women
TTITLE3=BIODTL
TTITLE4=Loser
TTITLE5=Looks Like Rain
TTITLE6=Row Jimmy
TTITLE7=You Ain't Woman Enough
TTITLE8=Box Of Rain
TTITLE9=Mexicali Blues
TTITLE10=Sugaree
TTITLE11=Around and Around
EXTD=
EXTT0=
EXTT1=
EXTT2=
EXTT3=
EXTT4=
EXTT5=
EXTT6=
EXTT7=
EXTT8=
EXTT9=
EXTT10=
EXTT11=
PLAYORDER=
